<?xml version="1.0" encoding="UTF-8"?>
<svg id="Camada_1" data-name="Camada 1" xmlns="http://www.w3.org/2000/svg" viewBox="0 0 139.85 145.27">
  <defs>
    <style>
      .cls-1 {
        fill: #e1124f;
      }

      .cls-2 {
        fill: #942c49;
      }
    </style>
  </defs>
  <path class="cls-1" d="m70,121.37l-4.07-3.91c-1.07-1.03-26.28-25.61-26.28-56.77S64.86,4.94,65.93,3.91l4.07-3.91,4.07,3.91c1.07,1.03,26.28,25.61,26.28,56.77s-25.2,55.74-26.28,56.77l-4.07,3.91Zm0-104.51c-6.53,7.75-18.6,24.69-18.6,43.82s12.07,36.06,18.6,43.82c6.53-7.75,18.6-24.69,18.6-43.82s-12.07-36.06-18.6-43.82Z"/>
  <g>
    <path class="cls-2" d="m69.99,145.27l-2.84-1.8c-1.78-1.23-40.07-28.15-55.62-68.87l8.34-3.19c12.55,32.86,42.02,56.92,50.13,63.08,7.87-5.98,37.52-30.1,50.11-63.08l8.34,3.19c-15.55,40.72-53.84,67.65-55.46,68.77l-3,1.9Z"/>
    <g>
      <path class="cls-2" d="m70,76.46c-6.04,0-8.18-9.29-8.18-17.24,0-8.68,5.22-15.59,5.44-15.88l2.74-3.58,2.74,3.58c.22.29,5.44,7.2,5.44,15.88,0,7.95-2.14,17.24-8.18,17.24Zm0-23.7c-.71,1.87-1.27,4.1-1.27,6.47,0,4.17.65,7.11,1.27,8.83.62-1.72,1.27-4.66,1.27-8.83,0-2.37-.56-4.6-1.27-6.47Z"/>
      <g>
        <path class="cls-2" d="m73.81,43.84c-5.93-15.66-21.16-27.18-38.13-27.1C18.87,16.83,2.51,28.02.38,45.52c-.6,4.91-.03,10.11,2.56,14.41,2.46,4.08,6.76,7.32,11.71,5.9,4.88-1.4,2.8-9.02-2.1-7.61-1.93.55-3.58-3.6-3.98-4.99-.86-3.02-.65-6.44.1-9.46,1.66-6.65,6.47-12.24,12.38-15.57,10.09-5.68,22.99-4.38,32.41,1.96,5.63,3.79,10.32,9.42,12.74,15.79,1.78,4.71,9.42,2.67,7.61-2.1h0Z"/>
        <circle class="cls-2" cx="12.87" cy="56.48" r="9.48"/>
      </g>
      <g>
        <path class="cls-2" d="m73.81,45.94c4.26-11.26,15.67-20.49,27.84-21.24,11.79-.73,24.34,4.63,28.83,16.31,1.3,3.38,1.86,7.2,1.29,10.8-.25,1.59-1.98,7.08-4.31,6.41-4.89-1.4-6.98,6.21-2.1,7.61,9.48,2.72,14.42-9.25,14.49-16.69.09-9.48-4.63-18.37-11.92-24.29-12.38-10.06-30.6-10.64-44.06-2.35-8.08,4.97-14.31,12.48-17.67,21.34-1.8,4.76,5.83,6.81,7.61,2.1h0Z"/>
        <circle class="cls-2" cx="127.13" cy="56.48" r="9.48"/>
      </g>
    </g>
  </g>
</svg>