<svg width="140" height="146" viewBox="0 0 140 146" fill="none" xmlns="http://www.w3.org/2000/svg">
<g clip-path="url(#clip0_308_139)">
<path d="M69.9999 121.37L65.9299 117.46C64.8599 116.43 39.6499 91.85 39.6499 60.69C39.6499 29.53 64.8599 4.94 65.9299 3.91L69.9999 0L74.0699 3.91C75.1399 4.94 100.35 29.52 100.35 60.68C100.35 91.84 75.1499 116.42 74.0699 117.45L69.9999 121.36V121.37Z" fill="#E1124F"/>
<path d="M69.9903 145.27L67.1503 143.47C65.3703 142.24 27.0803 115.32 11.5303 74.6L19.8703 71.41C32.4203 104.27 61.8903 128.33 70.0003 134.49C77.8703 128.51 107.52 104.39 120.11 71.41L128.45 74.6C112.9 115.32 74.6103 142.25 72.9903 143.37L69.9903 145.27Z" fill="#942C49"/>
<path d="M70.0003 76.46C63.9603 76.46 61.8203 67.17 61.8203 59.22C61.8203 50.54 67.0403 43.63 67.2603 43.34L70.0003 39.76L72.7403 43.34C72.9603 43.63 78.1803 50.54 78.1803 59.22C78.1803 67.17 76.0403 76.46 70.0003 76.46Z" fill="#942C49"/>
<path d="M73.8102 43.84C67.8802 28.18 52.6502 16.66 35.6802 16.74C18.8702 16.83 2.51024 28.02 0.380244 45.52C-0.219756 50.43 0.350244 55.63 2.94024 59.93C5.40024 64.01 9.70024 67.25 14.6502 65.83C19.5302 64.43 17.4502 56.81 12.5502 58.22C10.6202 58.77 8.97024 54.62 8.57024 53.23C7.71024 50.21 7.92024 46.79 8.67024 43.77C10.3302 37.12 15.1402 31.53 21.0502 28.2C31.1402 22.52 44.0402 23.82 53.4602 30.16C59.0902 33.95 63.7802 39.58 66.2002 45.95C67.9802 50.66 75.6202 48.62 73.8102 43.85V43.84Z" fill="#942C49"/>
<path d="M12.8701 65.96C18.1058 65.96 22.3501 61.7157 22.3501 56.48C22.3501 51.2443 18.1058 47 12.8701 47C7.63448 47 3.39014 51.2443 3.39014 56.48C3.39014 61.7157 7.63448 65.96 12.8701 65.96Z" fill="#942C49"/>
<path d="M73.8101 45.94C78.0701 34.68 89.4801 25.45 101.65 24.7C113.44 23.97 125.99 29.33 130.48 41.01C131.78 44.39 132.34 48.21 131.77 51.81C131.52 53.4 129.79 58.89 127.46 58.22C122.57 56.82 120.48 64.43 125.36 65.83C134.84 68.55 139.78 56.58 139.85 49.14C139.94 39.66 135.22 30.77 127.93 24.85C115.55 14.79 97.3301 14.21 83.8701 22.5C75.7901 27.47 69.5601 34.98 66.2001 43.84C64.4001 48.6 72.0301 50.65 73.8101 45.94Z" fill="#942C49"/>
<path d="M127.13 65.96C132.366 65.96 136.61 61.7157 136.61 56.48C136.61 51.2443 132.366 47 127.13 47C121.894 47 117.65 51.2443 117.65 56.48C117.65 61.7157 121.894 65.96 127.13 65.96Z" fill="#942C49"/>
</g>
<defs>
<clipPath id="clip0_308_139">
<rect width="139.85" height="145.27" fill="white"/>
</clipPath>
</defs>
</svg>
