<svg xmlns="http://www.w3.org/2000/svg" height="110" viewBox="0 96 960 960" width="110" fill="#ffffff"><path d="M451.308 931.999v-79h-80v-52.383h80V690.153q-81.077-11.077-134.192-72.234-53.115-61.158-53.115-141.506 0-90.547 62.849-153.98 62.849-63.432 153.076-63.432 90.228 0 153.65 63.432 63.423 63.433 63.423 153.929 0 80.303-53.615 141.509-53.615 61.205-133.692 72.282v110.463h80v52.383h-80v79h-58.384Zm28.481-298.383q65.992 0 112.409-45.707 46.418-45.707 46.418-111.698 0-65.992-46.278-112.409-46.278-46.418-112.269-46.418-65.991 0-111.838 46.278-45.847 46.278-45.847 112.269 0 65.991 45.707 111.838 45.707 45.847 111.698 45.847Z"/></svg>