<svg width="476" height="555" viewBox="0 0 476 555" fill="none" xmlns="http://www.w3.org/2000/svg">
<path fill-rule="evenodd" clip-rule="evenodd" d="M0.5 106.149V105.05C9.68896 100.604 19.4431 94.0591 30.3406 83.3228C52.2073 61.7793 56.7788 44.937 61.3689 28.0264L61.3706 28.0205C63.8364 18.936 66.3079 9.83203 71.4543 0H72.5935C67.3345 9.91162 64.8462 19.0786 62.3523 28.2661L62.3508 28.272C57.7437 45.2451 53.1162 62.2871 31.062 84.0151C19.894 95.0181 9.9021 101.661 0.5 106.149ZM0.5 125.748V124.701C12.9294 120.365 26.011 113.558 41.3618 98.4341C63.2285 76.8906 67.8 60.0483 72.3901 43.1377L72.3918 43.1318C76.0698 29.5815 79.761 15.9873 92.3215 0H93.6001C80.7798 16.0923 77.0828 29.7124 73.3735 43.3774L73.3721 43.3833C68.7649 60.3564 64.1375 77.3984 42.0833 99.1265C26.4543 114.524 13.1289 121.384 0.5 125.748ZM0.5 141.836V140.812C16.8921 136.336 33.4507 131.051 54.1248 110.683C75.9915 89.1392 80.563 72.2969 85.1531 55.3862L85.1548 55.3804C89.7361 38.502 94.3379 21.5552 116.077 0H117.5C117.389 0.109375 117.277 0.219238 117.165 0.32959C95.2983 21.873 90.7268 38.7153 86.1365 55.626L86.135 55.6318C81.5278 72.605 76.9004 89.647 54.8462 111.375C33.8782 132.033 17.0562 137.323 0.5 141.836ZM0.5 160.727V159.684C5.36157 158.046 10.1257 156.758 14.885 155.471C32.2175 150.784 49.4812 146.115 71.3496 124.57C93.2163 103.027 97.7878 86.1846 102.378 69.2739L102.38 69.2681C106.987 52.2949 111.614 35.2529 133.668 13.5249C139.26 8.01562 144.557 3.59961 149.633 0H151.368C145.989 3.70996 140.361 8.33447 134.39 14.2173C112.523 35.7607 107.952 52.603 103.361 69.5137L103.36 69.5195C98.7527 86.4927 94.1252 103.535 72.071 125.263C50.0171 146.991 32.5496 151.717 15.1541 156.421L15.1445 156.424C10.2915 157.736 5.44434 159.047 0.5 160.727ZM0.5 178.231V177.126C9.96191 172.503 18.8147 170.108 27.6504 167.719C44.9829 163.032 62.2466 158.364 84.115 136.819C105.982 115.275 110.553 98.4331 115.143 81.5225L115.145 81.5166C119.752 64.5435 124.38 47.5015 146.434 25.7734C161.089 11.3345 173.718 4.40479 185.647 0H188.595C175.993 4.32568 162.745 11.1064 147.155 26.4658C125.289 48.0093 120.717 64.8516 116.127 81.7622L116.125 81.7681C111.518 98.7412 106.891 115.783 84.8364 137.511C62.7825 159.239 45.3149 163.966 27.9194 168.67L27.9099 168.672C18.9683 171.09 10.0454 173.503 0.5 178.231ZM0.5 198.552V197.36C14.1458 188.404 26.25 185.131 38.3223 181.866C55.6548 177.179 72.9185 172.511 94.7869 150.966C116.654 129.422 121.225 112.58 125.815 95.6694L125.817 95.6636C130.424 78.6904 135.052 61.6484 157.106 39.9204C179.16 18.1924 196.624 13.4692 214.022 8.76465C222.448 6.48584 230.858 4.21191 239.789 0H242.062C232.364 4.82666 223.318 7.27393 214.291 9.71484L214.281 9.71729C196.951 14.4038 179.692 19.0708 157.827 40.6128C135.96 62.1562 131.389 78.9985 126.799 95.9092L126.797 95.915C122.19 112.888 117.562 129.93 95.5083 151.658C73.4543 173.386 55.9868 178.113 38.5913 182.817L38.5818 182.819C26.3943 186.115 14.2419 189.401 0.5 198.552ZM0.5 219.379C19.6294 202.623 35.3848 198.361 51.0854 194.116C68.418 189.429 85.6816 184.76 107.55 163.215C129.417 141.672 133.988 124.83 138.578 107.919L138.58 107.913C143.187 90.9399 147.815 73.8979 169.869 52.1699C191.923 30.4419 209.387 25.7188 226.785 21.0142C241.07 17.1509 255.309 13.3008 272.121 0H273.717C256.326 14.0469 241.665 18.0132 227.054 21.9644L227.044 21.9668C209.714 26.6533 192.455 31.3203 170.59 52.8623C148.724 74.4058 144.152 91.248 139.562 108.159L139.56 108.165C134.953 125.138 130.326 142.18 108.271 163.908C86.2175 185.636 68.75 190.362 51.3545 195.066L51.345 195.069C35.5222 199.348 19.759 203.61 0.5 220.71V219.379ZM0.5 243.543C2.7229 240.997 5.17822 238.388 7.89917 235.707C29.947 213.985 47.4114 209.262 64.8088 204.557C82.1414 199.87 99.405 195.202 121.273 173.657C143.14 152.113 147.712 135.271 152.302 118.36L152.303 118.354C156.91 101.381 161.538 84.3394 183.592 62.6113C205.646 40.8833 223.111 36.1602 240.508 31.4556C257.841 26.7686 275.104 22.1001 296.979 0.548828C297.165 0.365723 297.35 0.182617 297.533 0H298.947C298.538 0.412109 298.122 0.825684 297.701 1.24121C275.64 22.9756 258.173 27.7017 240.777 32.4058L240.768 32.4082C223.438 37.0947 206.179 41.7617 184.314 63.3037C162.447 84.8472 157.875 101.689 153.285 118.6L153.284 118.606C148.677 135.579 144.049 152.621 121.995 174.349C99.9409 196.077 82.4734 200.804 65.0779 205.508L65.0684 205.51C47.7383 210.197 30.4795 214.864 8.62061 236.399C5.59839 239.377 2.90698 242.265 0.5 245.075V243.543ZM0.5 273.751C4.92139 265.774 11.1812 257.298 20.6638 247.956C42.7117 226.233 60.176 221.51 77.5735 216.806C94.906 212.119 112.17 207.45 134.038 185.905C155.905 164.362 160.476 147.52 165.066 130.609L165.068 130.603C169.675 113.63 174.303 96.5879 196.357 74.8599C218.411 53.1318 235.875 48.4087 253.273 43.7041C270.605 39.0171 287.869 34.3486 309.744 12.7974C314.263 8.34473 318.044 4.09277 321.239 0H322.508C319.192 4.30811 315.236 8.78906 310.465 13.4897C288.405 35.2241 270.937 39.9502 253.542 44.6543L253.532 44.6567C236.202 49.3433 218.943 54.0103 197.078 75.5522C175.212 97.0957 170.64 113.938 166.05 130.849L166.048 130.854C161.441 147.828 156.814 164.87 134.76 186.598C112.706 208.326 95.238 213.052 77.8425 217.756L77.833 217.759C60.5029 222.445 43.2441 227.112 21.3853 248.648C11.322 258.562 4.92334 267.481 0.5 275.87V273.751ZM0.5 331.834C3.15234 325.223 4.87964 318.857 6.60962 312.482C11.2151 295.51 15.8396 278.471 37.8875 256.75C59.9353 235.027 77.3997 230.304 94.7971 225.6C112.13 220.913 129.393 216.244 151.262 194.699C173.128 173.156 177.7 156.313 182.29 139.403L182.292 139.397C186.899 122.424 191.526 105.382 213.581 83.6538C235.635 61.9258 253.099 57.2026 270.497 52.498C287.829 47.811 305.093 43.1426 326.967 21.5913C334.812 13.8623 340.432 6.73828 344.625 0H345.807C341.545 6.94727 335.793 14.2988 327.689 22.2837C305.628 44.0181 288.161 48.7441 270.766 53.4482L270.756 53.4507C253.426 58.1372 236.167 62.8042 214.302 84.3462C192.435 105.89 187.864 122.732 183.273 139.643L183.272 139.648C178.665 156.622 174.037 173.664 151.983 195.392C129.929 217.12 112.462 221.846 95.0662 226.55L95.0566 226.553C77.7266 231.239 60.4678 235.906 38.6089 257.442C16.7502 278.978 12.1809 295.816 7.59253 312.724L7.59009 312.733C5.65845 319.851 3.72314 326.981 0.5 334.464V331.834ZM0.5 366.38C12.2356 351.036 15.7991 337.905 19.3738 324.731C23.9792 307.76 28.6038 290.721 50.6516 268.999C72.6995 247.277 90.1638 242.554 107.561 237.849C124.894 233.162 142.157 228.494 164.026 206.949C185.893 185.405 190.464 168.563 195.054 151.652L195.056 151.646C199.663 134.673 204.291 117.631 226.345 95.9033C248.399 74.1753 265.863 69.4521 283.261 64.7476C300.593 60.0605 317.857 55.3921 339.731 33.8408C352.485 21.2759 359.357 10.311 363.779 0H364.877C360.422 10.5098 353.475 21.7041 340.453 34.5332C318.393 56.2676 300.925 60.9937 283.53 65.6978L283.52 65.7002C266.19 70.3867 248.931 75.0537 227.066 96.5957C205.199 118.139 200.628 134.981 196.038 151.892L196.036 151.898C191.429 168.871 186.802 185.913 164.747 207.641C142.693 229.369 125.226 234.096 107.83 238.8L107.821 238.802C90.4907 243.489 73.2319 248.156 51.373 269.691C29.5144 291.227 24.9451 308.065 20.3567 324.973L20.3542 324.982C16.6846 338.505 13.001 352.072 0.5 368.019V366.38ZM0.5 392.7C21.0964 371.859 25.5625 355.402 30.0464 338.878C34.6519 321.907 39.2764 304.868 61.3242 283.146C83.3721 261.424 100.836 256.701 118.234 251.996C135.566 247.309 152.83 242.641 174.698 221.096C196.565 199.552 201.137 182.71 205.727 165.799L205.729 165.793C210.335 148.82 214.963 131.778 237.017 110.05C259.071 88.3223 276.536 83.5991 293.933 78.8945C311.266 74.2075 328.53 69.5391 350.404 47.9878C369.127 29.541 375.173 14.5439 379.405 0H380.458C376.198 14.7144 370.131 29.9561 351.126 48.6802C329.065 70.4146 311.598 75.1406 294.202 79.8447L294.193 79.8472C276.863 84.5337 259.604 89.2007 237.739 110.743C215.872 132.286 211.301 149.128 206.71 166.039L206.709 166.045C202.102 183.018 197.474 200.06 175.42 221.788C153.366 243.516 135.898 248.243 118.503 252.947L118.493 252.949C101.163 257.636 83.9045 262.303 62.0457 283.838C40.187 305.374 35.6177 322.212 31.0293 339.12L31.0269 339.129C26.4746 355.904 21.9011 372.748 0.5 394.117V392.7ZM0.5 416.437C4.13184 413.573 7.88379 410.27 11.782 406.429C33.6501 384.883 38.2209 368.041 42.8103 351.128C47.4158 334.156 52.0403 317.117 74.0881 295.396C96.136 273.673 113.6 268.95 130.998 264.246C148.33 259.559 165.594 254.89 187.462 233.345C209.329 211.802 213.901 194.959 218.491 178.049L218.492 178.043C223.099 161.07 227.727 144.028 249.781 122.3C271.835 100.572 289.3 95.8486 306.697 91.144C324.03 86.457 341.293 81.7886 363.168 60.2373C385.043 38.686 389.613 21.8428 394.203 4.93018C394.648 3.28857 395.094 1.64697 395.555 0H396.606C396.121 1.72656 395.653 3.44922 395.186 5.17236L395.183 5.18164C390.578 22.1533 385.95 39.1953 363.89 60.9297C341.829 82.6641 324.362 87.3901 306.966 92.0942L306.957 92.0967C289.626 96.7832 272.368 101.45 250.503 122.992C228.636 144.536 224.064 161.378 219.474 178.289L219.473 178.294C214.865 195.268 210.238 212.31 188.184 234.038C166.13 255.766 148.662 260.492 131.267 265.196L131.257 265.199C113.927 269.885 96.6685 274.552 74.8096 296.088C52.9509 317.624 48.3816 334.462 43.7932 351.37L43.7908 351.379C39.1851 368.351 34.5576 385.393 12.5034 407.121C8.34961 411.213 4.3584 414.703 0.5 417.702V416.437ZM0.5 439.19C7.47388 435.004 14.8333 429.393 22.8052 421.539C44.6733 399.994 49.2441 383.151 53.8335 366.238C58.439 349.267 63.0635 332.228 85.1113 310.506C107.159 288.784 124.624 284.061 142.021 279.356C159.354 274.669 176.617 270 198.486 248.456C220.352 226.912 224.924 210.07 229.514 193.159L229.516 193.153C234.123 176.18 238.75 159.138 260.804 137.41C282.858 115.682 300.323 110.959 317.72 106.254C335.053 101.567 352.317 96.8989 374.191 75.3477C396.066 53.7964 400.636 36.9531 405.226 20.0405C407.011 13.4604 408.8 6.87012 411.606 0H412.698C409.828 6.9458 408.02 13.6089 406.209 20.2827L406.206 20.292C401.601 37.2637 396.973 54.3057 374.913 76.04C352.852 97.7744 335.385 102.5 317.99 107.205L317.98 107.207C300.65 111.894 283.391 116.561 261.526 138.103C239.659 159.646 235.088 176.488 230.497 193.399L230.496 193.405C225.889 210.378 221.261 227.42 199.207 249.148C177.153 270.876 159.686 275.603 142.29 280.307L142.281 280.309C124.95 284.996 107.692 289.663 85.8328 311.198C63.9741 332.734 59.4048 349.572 54.8164 366.48L54.814 366.489C50.2083 383.461 45.5808 400.503 23.5266 422.231C15.2893 430.347 7.69214 436.09 0.5 440.346V439.19ZM0.5 457.854C11.2175 453.426 22.5803 446.584 35.5684 433.789C57.4365 412.243 62.0073 395.4 66.5967 378.488C71.2021 361.516 75.8267 344.477 97.8745 322.755C119.922 301.033 137.387 296.31 154.784 291.605C172.117 286.918 189.38 282.25 211.249 260.705C233.115 239.162 237.687 222.319 242.277 205.409L242.279 205.403C246.886 188.43 251.513 171.388 273.568 149.66C295.622 127.932 313.086 123.208 330.484 118.504C347.816 113.817 365.08 109.148 386.954 87.5972C408.829 66.0459 413.4 49.2026 417.989 32.29C420.807 21.9053 423.633 11.4946 430.454 0H431.627C424.658 11.5771 421.819 22.0415 418.972 32.5322L418.969 32.5415C414.364 49.5132 409.736 66.5552 387.676 88.2896C365.615 110.024 348.148 114.75 330.753 119.454L330.743 119.457C313.413 124.143 296.154 128.81 274.289 150.352C252.422 171.896 247.851 188.738 243.26 205.648L243.259 205.654C238.652 222.627 234.024 239.669 211.97 261.397C189.916 283.125 172.449 287.852 155.053 292.556L155.044 292.559C137.714 297.245 120.455 301.912 98.5959 323.448C76.7373 344.983 72.168 361.822 67.5796 378.729L67.5771 378.739C62.9714 395.71 58.344 412.753 36.2898 434.481C23.0278 447.547 11.4253 454.464 0.5 458.925V457.854ZM0.5 477.436C16.4597 473.029 32.677 467.493 52.7935 447.674C74.6616 426.129 79.2324 409.286 83.8218 392.374C88.4272 375.402 93.0518 358.363 115.1 336.641C137.147 314.919 154.612 310.196 172.009 305.491C189.342 300.804 206.605 296.136 228.474 274.591C250.341 253.047 254.912 236.205 259.502 219.294L259.504 219.289C264.111 202.315 268.739 185.273 290.793 163.545C312.847 141.817 330.311 137.094 347.709 132.39C365.041 127.703 382.305 123.034 404.179 101.483C426.054 79.9316 430.625 63.0884 435.214 46.1758C439.123 31.7739 443.044 17.3237 457.619 0H458.933C444.062 17.4351 440.136 31.9009 436.197 46.418L436.195 46.4272C431.589 63.3989 426.961 80.4409 404.901 102.175C382.841 123.91 365.373 128.636 347.978 133.34L347.968 133.342C330.638 138.029 313.379 142.696 291.514 164.238C269.647 185.781 265.076 202.624 260.486 219.534L260.484 219.54C255.877 236.513 251.25 253.555 229.195 275.283C207.141 297.011 189.674 301.738 172.278 306.442L172.269 306.444C154.939 311.131 137.68 315.798 115.821 337.333C93.9624 358.869 89.3931 375.708 84.8047 392.615L84.8022 392.625C80.1965 409.596 75.5691 426.639 53.5149 448.367C33.1067 468.473 16.6287 474.018 0.5 478.46V477.436ZM0.5 493.214C3.37988 492.365 6.23804 491.592 9.09424 490.82L9.10034 490.819C26.4299 486.134 43.6897 481.468 65.5564 459.924C87.4246 438.379 91.9954 421.536 96.5847 404.624C101.19 387.652 105.815 370.613 127.863 348.891C149.91 327.169 167.375 322.446 184.772 317.741C202.105 313.054 219.368 308.386 241.237 286.841C263.104 265.297 267.675 248.455 272.265 231.544L272.267 231.539C276.874 214.565 281.501 197.523 303.556 175.795C325.61 154.067 343.074 149.344 360.472 144.64C377.804 139.953 395.068 135.284 416.942 113.733C438.817 92.1816 443.388 75.3384 447.977 58.4258C452.308 42.4663 456.656 26.4463 475.5 6.52295V7.98584C457.456 27.3599 453.216 42.9839 448.96 58.668L448.958 58.6772C444.352 75.6489 439.724 92.6909 417.664 114.425C395.604 136.16 378.136 140.886 360.741 145.59L360.731 145.592C343.401 150.279 326.142 154.946 304.277 176.488C282.41 198.031 277.839 214.874 273.249 231.784L273.247 231.79C268.64 248.763 264.012 265.805 241.958 287.533C219.904 309.261 202.437 313.988 185.041 318.692L185.032 318.694C167.702 323.381 150.443 328.048 128.584 349.583C106.725 371.119 102.156 387.958 97.5676 404.865L97.5652 404.875C92.9595 421.846 88.332 438.889 66.2778 460.617C44.2239 482.345 26.7593 487.068 9.36572 491.77L9.35986 491.772C6.41211 492.569 3.46655 493.365 0.5 494.244V493.214ZM0.5 510.94C7.07812 508.398 13.4277 506.681 19.7681 504.967L19.7742 504.965C37.1038 500.28 54.3635 495.614 76.2302 474.071C98.0984 452.525 102.669 435.683 107.259 418.77C111.864 401.798 116.489 384.759 138.536 363.038C160.584 341.315 178.049 336.592 195.446 331.888C212.779 327.201 230.042 322.532 251.911 300.987C273.777 279.444 278.349 262.602 282.939 245.691L282.941 245.685C287.548 228.712 292.175 211.67 314.229 189.942C336.283 168.214 353.748 163.491 371.146 158.786C388.478 154.099 405.742 149.431 427.616 127.879C449.491 106.328 454.062 89.4849 458.651 72.5723C462.009 60.1997 465.376 47.791 475.5 33.5557V35.3066C466.122 48.9038 462.883 60.8418 459.634 72.8145L459.631 72.8237C455.026 89.7954 450.398 106.837 428.338 128.572C406.277 150.306 388.81 155.032 371.415 159.736L371.405 159.739C354.075 164.425 336.816 169.092 314.951 190.634C293.084 212.178 288.513 229.02 283.922 245.931L283.921 245.937C279.314 262.91 274.686 279.952 252.632 301.68C230.578 323.408 213.111 328.134 195.715 332.838L195.706 332.841C178.375 337.527 161.117 342.194 139.258 363.73C117.399 385.266 112.83 402.104 108.241 419.012L108.239 419.021C103.633 435.993 99.0059 453.035 76.9517 474.763C54.8977 496.491 37.4331 501.214 20.0396 505.917L20.0337 505.918C13.5928 507.66 7.16162 509.398 0.5 512.002V510.94ZM0.5 529.185C11.8342 522.812 22.1951 520.01 32.531 517.216L32.5371 517.214C49.8667 512.529 67.1265 507.863 88.9932 486.32C110.861 464.774 115.432 447.932 120.021 431.019C124.627 414.047 129.251 397.008 151.299 375.287C173.347 353.564 190.812 348.841 208.209 344.137C225.542 339.45 242.805 334.781 264.674 313.236C286.54 291.693 291.112 274.851 295.702 257.94L295.704 257.934C300.311 240.961 304.938 223.919 326.992 202.191C349.046 180.463 366.511 175.74 383.908 171.035C401.241 166.348 418.505 161.68 440.379 140.128C462.254 118.577 466.824 101.734 471.414 84.8213C472.66 80.2305 473.907 75.6348 475.5 70.9429V74.2017C474.354 77.8501 473.376 81.4551 472.397 85.0635L472.394 85.0728C467.789 102.044 463.161 119.086 441.101 140.821C419.04 162.555 401.573 167.281 384.177 171.985L384.168 171.988C366.838 176.674 349.579 181.341 327.714 202.883C305.847 224.427 301.276 241.269 296.685 258.18L296.684 258.186C292.077 275.159 287.449 292.201 265.395 313.929C243.341 335.657 225.874 340.383 208.478 345.087L208.469 345.09C191.138 349.776 173.88 354.443 152.021 375.979C130.162 397.515 125.593 414.353 121.004 431.261L121.002 431.27C116.396 448.242 111.769 465.284 89.7146 487.012C67.6606 508.74 50.196 513.463 32.8025 518.166L32.7966 518.167C22.3474 520.992 11.9236 523.811 0.5 530.326V529.185ZM0.5 552.971C19.6208 536.23 35.3677 531.972 51.0569 527.73L51.063 527.729C68.3926 523.044 85.6523 518.378 107.519 496.834C129.387 475.289 133.958 458.446 138.547 441.534C143.153 424.562 147.777 407.523 169.825 385.801C191.873 364.079 209.337 359.356 226.735 354.651C244.067 349.964 261.331 345.296 283.199 323.751C305.066 302.208 309.638 285.365 314.228 268.455L314.229 268.449C318.836 251.476 323.464 234.434 345.518 212.706C367.572 190.978 385.037 186.254 402.434 181.55C419.767 176.863 437.031 172.194 458.905 150.643C466.106 143.549 471.431 136.964 475.5 130.72V132.539C471.512 138.452 466.388 144.673 459.627 151.335C437.566 173.07 420.099 177.796 402.703 182.5L402.694 182.502C385.364 187.189 368.105 191.856 346.24 213.398C324.373 234.941 319.802 251.784 315.211 268.694L315.21 268.7C310.603 285.673 305.975 302.715 283.921 324.443C261.867 346.171 244.399 350.898 227.004 355.602L226.994 355.604C209.664 360.291 192.406 364.958 170.547 386.494C148.688 408.029 144.119 424.868 139.53 441.775L139.528 441.785C134.922 458.756 130.295 475.799 108.24 497.527C86.1865 519.255 68.7219 523.978 51.3284 528.68L51.3225 528.682C35.5081 532.958 19.752 537.217 0.5 554.301V552.971ZM26.7273 555C40.0784 546.399 51.9658 543.184 63.8206 539.979L63.8267 539.978C81.1562 535.292 98.416 530.626 120.283 509.083C142.151 487.538 146.722 470.695 151.311 453.782C155.917 436.811 160.541 419.771 182.589 398.05C204.637 376.328 222.101 371.604 239.499 366.9C256.831 362.213 274.095 357.544 295.963 336C317.83 314.456 322.401 297.614 326.991 280.703L326.993 280.697C331.6 263.724 336.228 246.682 358.282 224.954C380.336 203.226 397.8 198.503 415.198 193.798C432.53 189.111 449.794 184.443 471.669 162.892C473.01 161.571 474.285 160.267 475.5 158.98V160.433C474.504 161.472 473.468 162.522 472.39 163.584C450.33 185.318 432.862 190.044 415.467 194.749L415.457 194.751C398.127 199.438 380.868 204.104 359.003 225.646C337.137 247.19 332.565 264.032 327.975 280.943L327.973 280.949C323.366 297.922 318.739 314.964 296.685 336.692C274.631 358.42 257.163 363.146 239.768 367.851L239.758 367.853C222.428 372.54 205.169 377.207 183.31 398.742C161.452 420.278 156.882 437.116 152.294 454.024L152.292 454.033C147.686 471.005 143.058 488.047 121.004 509.775C98.9502 531.503 81.4856 536.227 64.092 540.929L64.0862 540.931C52.6677 544.018 41.2795 547.096 28.584 555H26.7273ZM76.8813 555C78.2712 554.616 79.6584 554.241 81.0452 553.866L81.0513 553.865C98.3809 549.18 115.641 544.514 137.507 522.97C159.375 501.425 163.946 484.582 168.536 467.669C173.141 450.698 177.766 433.659 199.813 411.937C221.861 390.215 239.326 385.492 256.723 380.787C274.056 376.1 291.319 371.432 313.188 349.887C335.054 328.343 339.626 311.501 344.216 294.59L344.218 294.584C348.825 277.611 353.452 260.569 375.507 238.841C397.561 217.113 415.025 212.39 432.423 207.686C446.064 203.997 459.663 200.319 475.5 188.414V189.656C459.772 201.311 446.21 204.98 432.692 208.636L432.682 208.638C415.352 213.325 398.093 217.992 376.228 239.534C354.361 261.077 349.79 277.919 345.199 294.83L345.198 294.836C340.591 311.809 335.963 328.851 313.909 350.579C291.855 372.307 274.388 377.034 256.992 381.738L256.983 381.74C239.653 386.427 222.394 391.094 200.535 412.629C178.676 434.165 174.107 451.003 169.519 467.911L169.516 467.92C164.91 484.892 160.283 501.935 138.229 523.663C116.175 545.391 98.7102 550.114 81.3167 554.816L81.3108 554.818C81.0862 554.878 80.8618 554.939 80.6372 555H76.8813ZM124.231 555C132.307 550.634 140.863 544.489 150.272 535.219C172.14 513.673 176.711 496.831 181.3 479.918C185.906 462.946 190.53 445.907 212.578 424.186C234.626 402.463 252.09 397.74 269.488 393.036C286.82 388.349 304.084 383.68 325.952 362.135C347.819 340.592 352.39 323.75 356.98 306.839L356.982 306.833C361.589 289.86 366.217 272.818 388.271 251.09C410.325 229.362 427.789 224.639 445.187 219.934C455.028 217.273 464.847 214.618 475.5 208.875V210C464.936 215.616 455.185 218.253 445.456 220.884L445.446 220.887C428.116 225.573 410.857 230.24 388.992 251.782C367.126 273.326 362.554 290.168 357.964 307.079L357.962 307.084C353.355 324.058 348.728 341.1 326.674 362.828C304.62 384.556 287.152 389.282 269.757 393.986L269.747 393.989C252.417 398.675 235.158 403.342 213.299 424.878C191.441 446.414 186.871 463.252 182.283 480.16L182.281 480.169C177.675 497.141 173.047 514.183 150.993 535.911C142.11 544.663 133.971 550.656 126.282 555H124.231ZM154.905 555C156.88 553.262 158.892 551.389 160.944 549.367C182.812 527.821 187.383 510.979 191.972 494.066C196.577 477.094 201.202 460.055 223.25 438.333C245.298 416.611 262.762 411.888 280.159 407.184C297.492 402.497 314.756 397.828 336.624 376.283C358.491 354.74 363.062 337.897 367.652 320.987L367.654 320.981C372.261 304.008 376.889 286.966 398.943 265.238C420.997 243.51 438.461 238.787 455.859 234.082C462.334 232.331 468.8 230.583 475.5 227.956V229.017C468.885 231.582 462.501 233.309 456.128 235.032L456.118 235.035C438.788 239.721 421.529 244.388 399.664 265.93C377.798 287.474 373.226 304.316 368.636 321.227L368.634 321.232C364.027 338.206 359.4 355.248 337.345 376.976C315.292 398.704 297.824 403.43 280.428 408.134L280.419 408.137C263.089 412.823 245.83 417.49 223.971 439.026C202.113 460.562 197.543 477.4 192.955 494.308L192.952 494.317C188.347 511.289 183.719 528.331 161.665 550.059C159.884 551.814 158.132 553.458 156.409 555H154.905ZM180.024 555C196.533 536.543 200.627 521.457 204.736 506.314C209.342 489.342 213.966 472.303 236.014 450.582C258.062 428.859 275.526 424.136 292.924 419.432C310.256 414.745 327.52 410.076 349.388 388.531C371.255 366.988 375.826 350.146 380.417 333.235L380.418 333.229C385.025 316.256 389.653 299.214 411.707 277.486C433.761 255.758 451.225 251.035 468.623 246.33C470.913 245.711 473.202 245.092 475.5 244.435V245.461C473.29 246.091 471.091 246.686 468.892 247.28L468.882 247.283C451.552 251.969 434.293 256.636 412.428 278.178C390.562 299.722 385.99 316.564 381.4 333.475L381.398 333.48C376.791 350.454 372.164 367.496 350.11 389.224C328.056 410.952 310.588 415.678 293.193 420.382L293.183 420.385C275.853 425.071 258.594 429.738 236.735 451.274C214.877 472.81 210.307 489.648 205.719 506.556L205.717 506.565C201.64 521.588 197.546 536.666 181.364 555H180.024ZM202.469 555C209.901 543.007 212.825 532.23 215.758 521.425C220.363 504.454 224.988 487.415 247.035 465.693C269.083 443.971 286.548 439.248 303.945 434.543C321.278 429.856 338.541 425.188 360.41 403.643C382.276 382.099 386.848 365.257 391.438 348.346L391.44 348.34C396.047 331.367 400.674 314.325 422.729 292.597C443.033 272.593 459.447 267.002 475.5 262.57V263.594C459.618 267.992 443.463 273.572 423.45 293.29C401.583 314.833 397.012 331.675 392.421 348.586L392.42 348.592C387.813 365.565 383.185 382.607 361.131 404.335C339.077 426.063 321.61 430.79 304.214 435.494L304.205 435.496C286.875 440.183 269.616 444.85 247.757 466.385C225.898 487.921 221.329 504.759 216.74 521.667L216.738 521.676C213.836 532.371 210.925 543.094 203.65 555H202.469ZM221.596 555C224.722 547.677 226.621 540.682 228.522 533.674C233.128 516.703 237.752 499.664 259.8 477.942C281.848 456.22 299.312 451.497 316.71 446.792C334.042 442.105 351.306 437.437 373.174 415.892C395.041 394.348 399.613 377.506 404.203 360.595L404.204 360.589C408.811 343.616 413.439 326.574 435.493 304.846C450.474 290.087 463.337 283.174 475.5 278.783V279.835C463.54 284.197 450.919 291.052 436.215 305.539C414.348 327.082 409.776 343.924 405.186 360.835L405.185 360.841C400.577 377.814 395.95 394.856 373.896 416.584C351.842 438.312 334.374 443.039 316.979 447.743L316.969 447.745C299.639 452.432 282.38 457.099 260.521 478.634C238.663 500.17 234.094 517.008 229.505 533.916L229.503 533.925C227.628 540.834 225.749 547.756 222.692 555H221.596ZM242.892 555C243.676 552.338 244.393 549.693 245.112 547.046C249.717 530.075 254.342 513.036 276.389 491.314C298.437 469.592 315.902 464.869 333.299 460.164C350.632 455.477 367.895 450.809 389.764 429.264C411.63 407.72 416.202 390.878 420.792 373.967L420.794 373.961C425.401 356.988 430.028 339.946 452.083 318.218C460.469 309.956 468.192 304.152 475.5 299.874V301.026C468.41 305.237 460.925 310.91 452.804 318.911C430.937 340.454 426.366 357.296 421.775 374.207L421.774 374.213C417.167 391.186 412.539 408.228 390.485 429.956C368.431 451.684 350.964 456.411 333.568 461.115L333.559 461.117C316.229 465.804 298.97 470.471 277.111 492.006C255.252 513.542 250.683 530.38 246.094 547.288L246.092 547.297C245.397 549.858 244.702 552.42 243.946 555H242.892ZM475.5 320.952C472.062 323.705 468.518 326.85 464.847 330.467C442.793 352.195 438.165 369.237 433.558 386.21L433.556 386.216C428.966 403.127 424.395 419.969 402.528 441.513C380.66 463.058 363.396 467.726 346.063 472.413C328.666 477.118 311.202 481.841 289.154 503.563C268.964 523.454 263.385 539.418 259.051 555H260.102C264.403 539.581 269.971 523.865 289.875 504.255C311.734 482.72 328.993 478.053 346.323 473.366L346.333 473.364C363.728 468.66 381.196 463.933 403.25 442.205C425.304 420.477 429.931 403.435 434.538 386.462L434.54 386.456C439.13 369.545 443.702 352.703 465.568 331.16C468.985 327.793 472.29 324.839 475.5 322.232V320.952ZM475.5 344.633C453.463 366.352 448.836 383.389 444.231 400.357L444.229 400.363C439.639 417.274 435.067 434.116 413.201 455.66C391.332 477.205 374.069 481.873 356.736 486.56C339.339 491.265 321.874 495.988 299.826 517.71C285.662 531.665 278.689 543.687 274.292 555H275.376C279.745 543.882 286.654 532.091 300.548 518.402C322.407 496.867 339.666 492.2 356.996 487.513L357.005 487.511C374.401 482.807 391.868 478.08 413.922 456.352C435.976 434.624 440.604 417.582 445.211 400.609L445.212 400.603C449.75 383.885 454.27 367.234 475.5 346.042V344.633ZM475.5 371.327C464.076 386.518 460.529 399.583 456.994 412.606L456.992 412.612C452.402 429.523 447.831 446.365 425.964 467.909C404.096 489.454 386.832 494.122 369.5 498.809C352.102 503.514 334.638 508.237 312.59 529.959C303.406 539.007 297.245 547.243 292.849 555H294.009C298.347 547.45 304.389 539.442 313.311 530.651C335.17 509.116 352.429 504.449 369.759 499.762L369.769 499.76C387.164 495.056 404.632 490.329 426.686 468.601C448.74 446.873 453.367 429.831 457.974 412.858L457.976 412.852C461.41 400.199 464.834 387.584 475.5 373.011V371.327ZM475.5 407.178C473.563 412.565 472.139 417.81 470.717 423.048L470.716 423.054C466.125 439.964 461.554 456.807 439.687 478.35C417.819 499.895 400.555 504.563 383.223 509.25C365.825 513.955 348.361 518.678 326.313 540.4C321.131 545.506 316.912 550.352 313.429 555H314.686C318.055 550.567 322.105 545.949 327.034 541.093C348.893 519.557 366.152 514.89 383.482 510.204L383.492 510.201C400.887 505.497 418.355 500.771 440.409 479.042C462.463 457.314 467.09 440.272 471.698 423.299L471.699 423.293C472.871 418.975 474.042 414.662 475.5 410.273V407.178ZM475.5 459.001C471.053 468.662 464.284 478.942 452.452 490.6C430.584 512.145 413.32 516.813 395.988 521.5C378.59 526.205 361.126 530.928 339.078 552.65C338.277 553.439 337.498 554.223 336.742 555H338.142C338.683 554.451 339.235 553.898 339.799 553.342C361.658 531.807 378.917 527.14 396.247 522.453L396.257 522.451C413.652 517.747 431.12 513.02 453.174 491.292C464.315 480.315 471.009 470.534 475.5 461.354V459.001ZM475.5 498.42C473.708 500.401 471.771 502.422 469.677 504.486C447.808 526.031 430.545 530.699 413.212 535.386C399.447 539.109 385.639 542.843 369.552 555H371.217C386.701 543.579 400.065 539.965 413.472 536.339L413.481 536.337C430.877 531.633 448.344 526.906 470.398 505.178C472.214 503.39 473.911 501.633 475.5 499.905V498.42ZM475.5 523.154C456.836 539.29 441.433 543.455 425.975 547.635C418.542 549.646 411.096 551.659 403.287 555H405.875C412.831 552.213 419.528 550.402 426.235 548.588L426.244 548.586C441.576 544.44 456.965 540.276 475.5 524.469V523.154ZM475.5 545.533C469.368 549.696 463.556 552.68 457.921 555H460.452C465.296 552.874 470.284 550.223 475.5 546.732V545.533ZM54.4272 0C52.4609 5.43018 51.0249 10.7207 49.5872 16.0176L49.5857 16.0234C44.9785 32.9966 40.3511 50.0386 18.2969 71.7666C12.0286 77.9424 6.13086 82.7446 0.5 86.563V85.3584C5.90894 81.6367 11.5684 76.9922 17.5754 71.0742C39.4421 49.5308 44.0137 32.6885 48.6038 15.7778L48.6055 15.772C50.0186 10.5654 51.4338 5.35254 53.3533 0H54.4272ZM38.375 0H39.4238C39.2537 0.623535 39.0842 1.24756 38.915 1.87109L38.9136 1.87695C34.3064 18.8501 29.679 35.8921 7.62476 57.6201C5.19629 60.0127 2.82324 62.1992 0.5 64.2021V62.8809C2.5918 61.0527 4.72461 59.0742 6.90332 56.9277C28.77 35.3843 33.3416 18.542 37.9316 1.63135L37.9333 1.62549C38.0803 1.08398 38.2273 0.541992 38.375 0ZM22.1396 0H23.1987C19.4375 12.1289 13.9089 24.7578 0.5 39.5093V38.0142C13.1289 23.8804 18.4797 11.7222 22.1396 0ZM0.5 0.430664C0.567871 0.287109 0.635254 0.143555 0.702148 0H0.5V0.430664Z" fill="#D9D9D9"/>
</svg>
