<?xml version="1.0" encoding="UTF-8"?>
<svg id="Camada_1" data-name="Camada 1" xmlns="http://www.w3.org/2000/svg" viewBox="0 0 484.24 102.69">
  <defs>
    <style>
      .cls-1 {
        fill: #e1124f;
      }

      .cls-2 {
        fill: #942c49;
      }
    </style>
  </defs>
  <g>
    <path class="cls-1" d="m47,81.67l-2.74-2.63c-.72-.69-17.68-17.24-17.68-38.2S43.54,3.33,44.26,2.63l2.74-2.63,2.74,2.63c.72.69,17.68,17.24,17.68,38.2s-16.96,37.51-17.68,38.2l-2.74,2.63Zm0-70.32c-4.39,5.22-12.52,16.61-12.52,29.49s8.12,24.29,12.51,29.49c4.39-5.21,12.52-16.61,12.52-29.49s-8.12-24.27-12.52-29.49Z"/>
    <g>
      <path class="cls-2" d="m46.99,102.69l-1.91-1.21c-1.2-.83-26.96-18.94-37.43-46.35l5.62-2.14c8.44,22.11,28.28,38.3,33.73,42.44,5.29-4.02,25.25-20.25,33.72-42.44l5.62,2.14c-10.46,27.4-36.23,45.52-37.32,46.28l-2.02,1.28Z"/>
      <g>
        <path class="cls-2" d="m46.99,56.38c-4.06,0-5.51-6.25-5.51-11.6,0-5.84,3.51-10.49,3.66-10.69l1.85-2.41,1.85,2.41c.15.19,3.66,4.84,3.66,10.69,0,5.35-1.44,11.6-5.51,11.6Zm0-15.95c-.47,1.26-.85,2.76-.85,4.35,0,2.81.44,4.78.85,5.94.42-1.16.85-3.13.85-5.94,0-1.59-.38-3.09-.85-4.35Z"/>
        <g>
          <path class="cls-2" d="m49.56,34.44c-3.99-10.54-14.24-18.29-25.66-18.24-11.31.06-22.32,7.59-23.75,19.37-.4,3.3-.02,6.8,1.72,9.7s4.55,4.93,7.88,3.97c3.28-.94,1.89-6.07-1.41-5.12-1.3.37-2.41-2.43-2.68-3.36-.58-2.03-.44-4.34.07-6.37,1.12-4.48,4.35-8.24,8.33-10.48,6.79-3.82,15.47-2.95,21.81,1.32,3.79,2.55,6.95,6.34,8.57,10.62,1.2,3.17,6.34,1.79,5.12-1.41h0Z"/>
          <circle class="cls-2" cx="8.55" cy="42.94" r="6.38"/>
        </g>
        <g>
          <path class="cls-2" d="m49.56,35.85c2.87-7.58,10.55-13.79,18.73-14.29,7.94-.49,16.38,3.12,19.4,10.98.87,2.27,1.25,4.85.87,7.26-.17,1.07-1.33,4.76-2.9,4.31-3.29-.94-4.7,4.18-1.41,5.12,6.38,1.83,9.7-6.23,9.75-11.23.06-6.38-3.12-12.36-8.02-16.35-8.33-6.77-20.59-7.16-29.65-1.58-5.44,3.35-9.63,8.4-11.89,14.36-1.21,3.2,3.92,4.58,5.12,1.41h0Z"/>
          <circle class="cls-2" cx="85.43" cy="42.94" r="6.38"/>
        </g>
      </g>
    </g>
  </g>
  <g>
    <path class="cls-1" d="m113.14,68.45v-34h11.49c2.71,0,5.09.45,7.14,1.34,2.04.89,3.74,2.11,5.1,3.64,1.36,1.53,2.37,3.33,3.04,5.39.67,2.06,1.01,4.25,1.01,6.58,0,2.59-.38,4.92-1.15,7.01-.77,2.09-1.85,3.88-3.26,5.36s-3.11,2.63-5.12,3.45c-2.01.81-4.26,1.22-6.75,1.22h-11.49Zm24.42-17.05c0-2.04-.29-3.92-.86-5.63-.57-1.71-1.41-3.18-2.51-4.43-1.1-1.25-2.45-2.21-4.05-2.9-1.6-.69-3.43-1.03-5.51-1.03h-8.19v28.06h8.19c2.11,0,3.97-.36,5.58-1.08,1.61-.72,2.96-1.71,4.05-2.97,1.08-1.26,1.91-2.75,2.47-4.45.56-1.71.84-3.57.84-5.58Z"/>
    <path class="cls-1" d="m159.15,46.38c-2.2.06-4.12.67-5.75,1.82-1.63,1.15-2.78,2.73-3.45,4.74v15.51h-3.26v-24.95h3.06v5.99c.86-1.76,1.99-3.22,3.4-4.38,1.4-1.17,2.92-1.75,4.55-1.75h.81c.25,0,.46.02.62.05v2.97Z"/>
    <path class="cls-1" d="m169.64,68.93c-1.28,0-2.44-.2-3.5-.6-1.05-.4-1.96-.95-2.71-1.65-.75-.7-1.33-1.52-1.75-2.44-.42-.93-.62-1.9-.62-2.92,0-1.15.26-2.19.77-3.14.51-.94,1.23-1.75,2.15-2.42.93-.67,2.04-1.19,3.33-1.56,1.29-.37,2.72-.55,4.29-.55,1.25,0,2.52.11,3.83.34,1.31.22,2.47.54,3.5.96v-2.25c0-2.2-.63-3.95-1.89-5.24-1.26-1.29-2.96-1.94-5.1-1.94-1.34,0-2.67.26-4,.77-1.33.51-2.67,1.25-4.05,2.2l-1.15-2.16c1.63-1.08,3.21-1.9,4.74-2.44s3.13-.81,4.79-.81c3.03,0,5.44.88,7.23,2.63,1.79,1.76,2.68,4.18,2.68,7.28v11.25c0,.89.38,1.34,1.15,1.34v2.87c-.26.03-.5.06-.72.07-.22.02-.42.02-.57.02-.64,0-1.22-.19-1.75-.57-.53-.38-.82-.96-.89-1.72l-.1-1.96c-1.09,1.47-2.51,2.61-4.29,3.42-1.77.81-3.57,1.22-5.39,1.22Zm.81-2.49c1.44,0,2.86-.31,4.29-.93,1.42-.62,2.55-1.48,3.38-2.56.22-.29.41-.6.57-.93.16-.33.24-.65.24-.93v-4.07c-1.09-.42-2.22-.73-3.4-.96-1.18-.22-2.33-.33-3.45-.33-2.33,0-4.22.47-5.67,1.41-1.45.94-2.18,2.24-2.18,3.9,0,.67.13,1.33.38,1.96.26.64.65,1.21,1.17,1.72.53.51,1.17.93,1.94,1.25.77.32,1.68.48,2.73.48Z"/>
    <path class="cls-1" d="m188.94,68.45v-4.69h2.78v4.69h-2.78Z"/>
    <path class="cls-1" d="m214.7,40.68v27.77h-3.3v-34h2.59l22.51,28.3v-28.25h3.3v33.95h-2.87l-22.22-27.77Z"/>
    <path class="cls-1" d="m258.51,68.93c-1.82,0-3.5-.34-5.03-1.03-1.53-.69-2.86-1.63-3.97-2.83-1.12-1.2-1.99-2.58-2.61-4.14-.62-1.56-.93-3.24-.93-5.03s.31-3.41.93-4.96c.62-1.55,1.49-2.9,2.61-4.07,1.12-1.17,2.43-2.09,3.95-2.78,1.52-.69,3.18-1.03,5-1.03s3.49.34,5,1.03c1.52.69,2.82,1.62,3.9,2.8,1.08,1.18,1.93,2.54,2.54,4.07.61,1.53.91,3.16.91,4.88,0,.26,0,.51-.02.77-.02.26-.04.43-.07.53h-21.31c.1,1.34.41,2.58.93,3.71.53,1.13,1.2,2.12,2.01,2.95.81.83,1.76,1.48,2.83,1.94s2.21.69,3.42.69c.83,0,1.64-.11,2.44-.34.8-.22,1.53-.53,2.2-.91.67-.38,1.27-.85,1.79-1.41.53-.56.93-1.17,1.22-1.84l2.83.77c-.38.93-.93,1.76-1.63,2.51-.7.75-1.52,1.41-2.44,1.96-.93.56-1.95.99-3.06,1.29-1.12.3-2.27.45-3.45.45Zm9.19-14.27c-.1-1.34-.41-2.56-.93-3.66-.53-1.1-1.2-2.05-2.01-2.85-.81-.8-1.76-1.42-2.85-1.87-1.09-.45-2.24-.67-3.45-.67s-2.36.22-3.45.67c-1.09.45-2.04,1.07-2.85,1.87-.81.8-1.47,1.76-1.96,2.87-.5,1.12-.79,2.33-.89,3.64h18.39Z"/>
    <path class="cls-1" d="m283.41,68.93c-2.62,0-4.6-.9-5.94-2.71s-2.01-4.49-2.01-8.07v-14.65h3.26v14.08c0,5.65,1.93,8.48,5.79,8.48.96,0,1.9-.16,2.83-.48.93-.32,1.78-.78,2.56-1.39s1.48-1.32,2.11-2.16c.62-.83,1.12-1.77,1.51-2.83v-15.71h3.26v20.73c0,.89.4,1.34,1.2,1.34v2.87c-.64.1-1.08.14-1.34.14-.73,0-1.36-.22-1.89-.67-.53-.45-.79-1.01-.79-1.68v-3.45c-1.12,1.95-2.6,3.46-4.45,4.53s-3.88,1.6-6.08,1.6Z"/>
    <path class="cls-1" d="m312.53,68.93c-1.95,0-3.85-.32-5.7-.96-1.85-.64-3.45-1.56-4.79-2.78l1.48-2.2c1.4,1.15,2.83,2.01,4.29,2.59,1.45.57,3.01.86,4.67.86,2.01,0,3.62-.41,4.81-1.22,1.2-.81,1.8-1.97,1.8-3.47,0-.7-.16-1.28-.48-1.75-.32-.46-.79-.87-1.41-1.22-.62-.35-1.41-.66-2.35-.93-.94-.27-2.04-.55-3.28-.84-1.44-.35-2.68-.7-3.74-1.05-1.05-.35-1.92-.75-2.61-1.2-.69-.45-1.2-1-1.53-1.65-.34-.65-.5-1.48-.5-2.47,0-1.25.25-2.35.74-3.3.49-.96,1.17-1.75,2.01-2.37.85-.62,1.84-1.09,2.97-1.41,1.13-.32,2.34-.48,3.62-.48,1.92,0,3.66.31,5.22.93,1.56.62,2.83,1.45,3.78,2.47l-1.58,1.92c-.93-.96-2.05-1.68-3.38-2.16-1.33-.48-2.71-.72-4.14-.72-.86,0-1.66.09-2.39.26-.74.18-1.38.46-1.94.84-.56.38-1,.87-1.32,1.46-.32.59-.48,1.29-.48,2.08,0,.67.11,1.21.33,1.63.22.42.59.77,1.1,1.08.51.3,1.16.58,1.94.81s1.73.49,2.85.74c1.6.38,3,.77,4.21,1.15s2.23.83,3.04,1.34c.81.51,1.43,1.13,1.84,1.87.41.73.62,1.63.62,2.68,0,2.3-.88,4.12-2.63,5.46s-4.12,2.01-7.09,2.01Z"/>
    <path class="cls-1" d="m334.07,68.93c-1.28,0-2.44-.2-3.5-.6-1.05-.4-1.96-.95-2.71-1.65s-1.33-1.52-1.75-2.44c-.42-.93-.62-1.9-.62-2.92,0-1.15.25-2.19.77-3.14.51-.94,1.23-1.75,2.15-2.42.93-.67,2.04-1.19,3.33-1.56,1.29-.37,2.72-.55,4.29-.55,1.24,0,2.52.11,3.83.34s2.47.54,3.5.96v-2.25c0-2.2-.63-3.95-1.89-5.24-1.26-1.29-2.96-1.94-5.1-1.94-1.34,0-2.67.26-4,.77-1.32.51-2.67,1.25-4.05,2.2l-1.15-2.16c1.63-1.08,3.21-1.9,4.74-2.44s3.13-.81,4.79-.81c3.03,0,5.44.88,7.23,2.63s2.68,4.18,2.68,7.28v11.25c0,.89.38,1.34,1.15,1.34v2.87c-.26.03-.5.06-.72.07-.22.02-.42.02-.57.02-.64,0-1.22-.19-1.75-.57-.53-.38-.82-.96-.89-1.72l-.1-1.96c-1.09,1.47-2.51,2.61-4.29,3.42-1.77.81-3.57,1.22-5.39,1.22Zm.81-2.49c1.44,0,2.86-.31,4.29-.93,1.42-.62,2.55-1.48,3.38-2.56.22-.29.42-.6.58-.93.16-.33.24-.65.24-.93v-4.07c-1.09-.42-2.22-.73-3.4-.96-1.18-.22-2.33-.33-3.45-.33-2.33,0-4.22.47-5.67,1.41-1.45.94-2.18,2.24-2.18,3.9,0,.67.13,1.33.38,1.96.25.64.65,1.21,1.17,1.72.53.51,1.17.93,1.94,1.25.77.32,1.68.48,2.73.48Z"/>
    <path class="cls-1" d="m366.78,68.45v-34h14.08c1.47,0,2.82.31,4.05.93s2.29,1.44,3.18,2.44c.89,1,1.59,2.15,2.08,3.42s.74,2.57.74,3.88c0,1.41-.23,2.75-.69,4.05s-1.12,2.43-1.99,3.42c-.86.99-1.89,1.79-3.09,2.39-1.2.61-2.53.91-4,.91h-11.06v12.55h-3.3Zm3.3-15.51h10.87c.99,0,1.89-.22,2.71-.65.81-.43,1.51-1.01,2.08-1.72.57-.72,1.02-1.55,1.34-2.49.32-.94.48-1.92.48-2.95s-.18-2.05-.55-2.99c-.37-.94-.86-1.76-1.48-2.47-.62-.7-1.36-1.25-2.2-1.65s-1.73-.6-2.66-.6h-10.58v15.51Z"/>
    <path class="cls-1" d="m408.15,46.38c-2.2.06-4.12.67-5.75,1.82-1.63,1.15-2.78,2.73-3.45,4.74v15.51h-3.26v-24.95h3.07v5.99c.86-1.76,1.99-3.22,3.4-4.38,1.4-1.17,2.92-1.75,4.55-1.75h.81c.25,0,.46.02.62.05v2.97Z"/>
    <path class="cls-1" d="m423.43,68.93c-1.82,0-3.5-.34-5.03-1.03-1.53-.69-2.86-1.63-3.97-2.83-1.12-1.2-1.99-2.58-2.61-4.14-.62-1.56-.93-3.24-.93-5.03s.31-3.41.93-4.96c.62-1.55,1.49-2.9,2.61-4.07,1.12-1.17,2.43-2.09,3.95-2.78,1.52-.69,3.18-1.03,5-1.03s3.49.34,5,1.03c1.52.69,2.82,1.62,3.9,2.8,1.08,1.18,1.93,2.54,2.54,4.07.61,1.53.91,3.16.91,4.88,0,.26,0,.51-.02.77-.02.26-.04.43-.07.53h-21.31c.1,1.34.41,2.58.93,3.71.53,1.13,1.2,2.12,2.01,2.95.81.83,1.76,1.48,2.83,1.94s2.21.69,3.42.69c.83,0,1.64-.11,2.44-.34.8-.22,1.53-.53,2.2-.91.67-.38,1.27-.85,1.79-1.41.53-.56.93-1.17,1.22-1.84l2.83.77c-.38.93-.93,1.76-1.63,2.51-.7.75-1.52,1.41-2.44,1.96-.93.56-1.95.99-3.06,1.29-1.12.3-2.27.45-3.45.45Zm9.19-14.27c-.1-1.34-.41-2.56-.93-3.66-.53-1.1-1.2-2.05-2.01-2.85-.81-.8-1.76-1.42-2.85-1.87-1.09-.45-2.24-.67-3.45-.67s-2.36.22-3.45.67c-1.09.45-2.04,1.07-2.85,1.87-.81.8-1.47,1.76-1.96,2.87-.5,1.12-.79,2.33-.89,3.64h18.39Z"/>
    <path class="cls-1" d="m449,68.93c-1.95,0-3.85-.32-5.7-.96-1.85-.64-3.45-1.56-4.79-2.78l1.48-2.2c1.4,1.15,2.83,2.01,4.29,2.59,1.45.57,3.01.86,4.67.86,2.01,0,3.62-.41,4.81-1.22,1.2-.81,1.8-1.97,1.8-3.47,0-.7-.16-1.28-.48-1.75-.32-.46-.79-.87-1.41-1.22-.62-.35-1.41-.66-2.35-.93-.94-.27-2.04-.55-3.28-.84-1.44-.35-2.68-.7-3.74-1.05-1.05-.35-1.92-.75-2.61-1.2-.69-.45-1.2-1-1.53-1.65-.34-.65-.5-1.48-.5-2.47,0-1.25.25-2.35.74-3.3.49-.96,1.17-1.75,2.01-2.37.85-.62,1.84-1.09,2.97-1.41,1.13-.32,2.34-.48,3.62-.48,1.92,0,3.66.31,5.22.93,1.56.62,2.83,1.45,3.78,2.47l-1.58,1.92c-.93-.96-2.05-1.68-3.38-2.16-1.33-.48-2.71-.72-4.14-.72-.86,0-1.66.09-2.39.26-.74.18-1.38.46-1.94.84-.56.38-1,.87-1.32,1.46-.32.59-.48,1.29-.48,2.08,0,.67.11,1.21.33,1.63.22.42.59.77,1.1,1.08.51.3,1.16.58,1.94.81s1.73.49,2.85.74c1.6.38,3,.77,4.21,1.15s2.23.83,3.04,1.34c.81.51,1.43,1.13,1.84,1.87.41.73.62,1.63.62,2.68,0,2.3-.88,4.12-2.63,5.46s-4.12,2.01-7.09,2.01Z"/>
    <path class="cls-1" d="m470.55,68.93c-1.28,0-2.44-.2-3.5-.6-1.05-.4-1.96-.95-2.71-1.65s-1.33-1.52-1.75-2.44c-.42-.93-.62-1.9-.62-2.92,0-1.15.25-2.19.77-3.14.51-.94,1.23-1.75,2.15-2.42.93-.67,2.04-1.19,3.33-1.56,1.29-.37,2.72-.55,4.29-.55,1.24,0,2.52.11,3.83.34s2.47.54,3.5.96v-2.25c0-2.2-.63-3.95-1.89-5.24-1.26-1.29-2.96-1.94-5.1-1.94-1.34,0-2.67.26-4,.77-1.32.51-2.67,1.25-4.05,2.2l-1.15-2.16c1.63-1.08,3.21-1.9,4.74-2.44s3.13-.81,4.79-.81c3.03,0,5.44.88,7.23,2.63s2.68,4.18,2.68,7.28v11.25c0,.89.38,1.34,1.15,1.34v2.87c-.26.03-.5.06-.72.07-.22.02-.42.02-.57.02-.64,0-1.22-.19-1.75-.57-.53-.38-.82-.96-.89-1.72l-.1-1.96c-1.09,1.47-2.51,2.61-4.29,3.42-1.77.81-3.57,1.22-5.39,1.22Zm.81-2.49c1.44,0,2.86-.31,4.29-.93,1.42-.62,2.55-1.48,3.38-2.56.22-.29.42-.6.58-.93.16-.33.24-.65.24-.93v-4.07c-1.09-.42-2.22-.73-3.4-.96-1.18-.22-2.33-.33-3.45-.33-2.33,0-4.22.47-5.67,1.41-1.45.94-2.18,2.24-2.18,3.9,0,.67.13,1.33.38,1.96.25.64.65,1.21,1.17,1.72.53.51,1.17.93,1.94,1.25.77.32,1.68.48,2.73.48Z"/>
  </g>
  <g>
    <path class="cls-1" d="m118.46,85.33c2.74,0,4.79,1.37,5.67,3.73h-1.44c-.69-1.64-2.13-2.66-4.22-2.66-2.69,0-4.75,1.99-4.75,5.21s2.06,5.19,4.75,5.19c2.09,0,3.54-1.02,4.22-2.62h1.44c-.88,2.32-2.92,3.69-5.67,3.69-3.41,0-6.02-2.57-6.02-6.26s2.6-6.28,6.02-6.28Z"/>
    <path class="cls-1" d="m133.79,85.47c2.85,0,4.19,1.55,4.19,3.57,0,1.69-.95,3.11-3.03,3.5l3.17,5.23h-1.48l-3.04-5.14h-2.27v5.14h-1.23v-12.3h3.69Zm0,1.04h-2.46v5.12h2.48c2.01,0,2.9-1.09,2.9-2.59s-.84-2.53-2.92-2.53Z"/>
    <path class="cls-1" d="m143.94,85.63h1.3l4.7,10.52,4.7-10.52h1.32v12.14h-1.23v-9.69l-4.33,9.69h-.9l-4.33-9.66v9.66h-1.23v-12.14Z"/>
    <path class="cls-1" d="m171.5,86.26h-1.74v-1.11h2.99v12.61h-1.25v-11.51Z"/>
    <path class="cls-1" d="m180.16,86.26h-1.74v-1.11h2.99v12.61h-1.25v-11.51Z"/>
    <path class="cls-1" d="m191.95,84.98c3.45,0,4.27,2.76,4.27,6.37s-.83,6.46-4.27,6.46-4.28-2.78-4.28-6.46.81-6.37,4.28-6.37Zm0,1.11c-2.67,0-3.06,2.41-3.06,5.26s.39,5.33,3.06,5.33,3.06-2.38,3.06-5.33-.39-5.26-3.06-5.26Z"/>
    <path class="cls-1" d="m209.98,85.14v1.07h-6.44v4.5c.56-.79,1.78-1.41,3.11-1.41,3.04,0,4.08,2.15,4.08,4.13,0,2.38-1.3,4.38-4.28,4.38-2.45,0-3.99-1.39-4.31-3.48h1.21c.32,1.57,1.5,2.43,3.1,2.43,2.13,0,3.1-1.41,3.1-3.31s-1.06-3.1-3.06-3.1c-1.39,0-2.45.7-2.94,1.76h-1.16v-6.98h7.58Z"/>
    <path class="cls-1" d="m216.16,96.8c3.62-2.71,6.77-5.44,6.77-8.13,0-1.46-.63-2.67-2.59-2.67s-2.78,1.3-2.89,3.06h-1.2c.14-2.66,1.76-4.12,4.08-4.12,2.2,0,3.82,1.25,3.82,3.68,0,3.22-3.64,6.19-6.12,8.02h6.51v1.04h-8.39v-.88Z"/>
  </g>
</svg>