<svg width="800" height="1308" viewBox="0 300 200 700" fill="none" xmlns="http://www.w3.org/2000/svg">
<path d="M79.9795 1130.39C128.749 1093.74 149.772 1121.71 198.541 1085.06C247.311 1048.41 226.288 1020.44 275.043 983.796C323.799 947.156 344.836 975.119 393.605 938.468C442.375 901.817 421.352 873.843 470.121 837.192C518.89 800.541 539.914 828.515 588.697 791.853C637.48 755.192 616.443 727.228 665.213 690.577" stroke="#ED56A3" stroke-opacity="0.19" stroke-miterlimit="10"/>
<path d="M-330.056 575.286C-281.286 538.635 -260.263 566.609 -211.494 529.958C-162.724 493.307 -183.747 465.332 -134.992 428.692C-86.2365 392.051 -65.1994 420.015 -16.43 383.364C32.3395 346.713 11.3164 318.739 60.0858 282.088C108.855 245.436 129.878 273.411 178.662 236.749C227.445 200.087 206.408 172.124 255.178 135.473" stroke="#ED56A3" stroke-opacity="0.19" stroke-miterlimit="10"/>
<path d="M-67.1636 923.949C-18.3941 887.298 2.62893 915.273 51.3984 878.621C100.168 841.97 79.1448 813.996 127.9 777.356C176.656 740.715 197.693 768.679 246.462 732.028C295.232 695.377 274.208 667.402 322.978 630.751C371.747 594.1 392.77 622.074 441.554 585.413C490.337 548.751 469.3 520.788 518.07 484.137" stroke="#ED56A3" stroke-opacity="0.19" stroke-miterlimit="10"/>
<path d="M-200.546 746.71C-151.776 710.059 -130.753 738.033 -81.984 701.382C-33.2145 664.731 -54.2376 636.756 -5.48215 600.116C43.2733 563.475 64.3103 591.439 113.08 554.788C161.849 518.137 140.826 490.163 189.596 453.512C238.365 416.861 259.388 444.835 308.172 408.173C356.955 371.511 335.918 343.548 384.687 306.897" stroke="#ED56A3" stroke-opacity="0.19" stroke-miterlimit="10"/>
<path d="M61.0586 1099.83C109.828 1063.17 130.851 1091.15 179.621 1054.5C228.39 1017.85 207.367 989.872 256.122 953.231C304.878 916.591 325.915 944.554 374.684 907.903C423.454 871.252 402.431 843.278 451.2 806.627C499.97 769.976 520.993 797.95 569.776 761.289C618.56 724.627 597.522 696.663 646.292 660.012" stroke="#ED56A3" stroke-opacity="0.19" stroke-miterlimit="10"/>
<path d="M-267.323 665.648C-218.554 628.997 -197.531 656.972 -148.761 620.32C-99.9919 583.669 -121.015 555.695 -72.2595 519.055C-23.5041 482.414 -2.46699 510.378 46.3024 473.727C95.0719 437.076 74.0488 409.101 122.818 372.45C171.588 335.799 192.611 363.773 241.394 327.112C290.178 290.45 269.141 262.487 317.91 225.835" stroke="#ED56A3" stroke-opacity="0.19" stroke-miterlimit="10"/>
<path d="M-4.96826 1013.71C43.8012 977.059 64.8242 1005.03 113.594 968.382C162.363 931.731 141.34 903.757 190.095 867.116C238.851 830.476 259.888 858.44 308.657 821.788C357.427 785.137 336.404 757.163 385.173 720.512C433.943 683.861 454.966 711.835 503.749 675.174C552.533 638.512 531.496 610.548 580.265 573.897" stroke="#ED56A3" stroke-opacity="0.19" stroke-miterlimit="10"/>
<path d="M-137.813 837.073C-89.0435 800.421 -68.0205 828.396 -19.251 791.745C29.5184 755.093 8.49535 727.119 57.2508 690.479C106.006 653.838 127.043 681.802 175.813 645.151C224.582 608.5 203.559 580.526 252.329 543.874C301.098 507.223 322.121 535.197 370.905 498.536C419.688 461.874 398.651 433.911 447.42 397.26" stroke="#ED56A3" stroke-opacity="0.19" stroke-miterlimit="10"/>
<path d="M123.791 1190.19C172.56 1153.54 193.583 1181.51 242.352 1144.86C291.122 1108.21 270.099 1080.23 318.854 1043.59C367.61 1006.95 388.647 1034.92 437.416 998.266C486.186 961.615 465.163 933.641 513.932 896.99C562.701 860.339 583.725 888.313 632.508 851.651C681.291 814.99 660.254 787.026 709.024 750.375" stroke="#ED56A3" stroke-opacity="0.19" stroke-miterlimit="10"/>
<path d="M-338.269 559.715C-289.499 523.064 -268.476 551.038 -219.707 514.387C-170.937 477.736 -191.96 449.762 -143.205 413.121C-94.4494 376.481 -73.4123 404.444 -24.6429 367.793C24.1266 331.142 3.1035 303.168 51.8729 266.517C100.642 229.866 121.665 257.84 170.449 221.178C219.232 184.517 198.195 156.553 246.965 119.902" stroke="#ED56A3" stroke-opacity="0.19" stroke-miterlimit="10"/>
<path d="M-75.3765 908.378C-26.607 871.727 -5.58396 899.701 43.1855 863.05C91.9549 826.399 70.9319 798.424 119.687 761.784C168.443 725.143 189.48 753.107 238.249 716.456C287.019 679.805 265.996 651.831 314.765 615.18C363.534 578.529 384.558 606.503 433.341 569.841C482.125 533.179 461.087 505.216 509.857 468.565" stroke="#ED56A3" stroke-opacity="0.19" stroke-miterlimit="10"/>
<path d="M-208.759 731.139C-159.99 694.488 -138.967 722.462 -90.1973 685.811C-41.4279 649.16 -62.4509 621.186 -13.6955 584.545C35.0599 547.905 56.097 575.868 104.866 539.217C153.636 502.566 132.613 474.592 181.382 437.941C230.152 401.29 251.175 429.264 299.958 392.602C348.742 355.941 327.705 327.977 376.474 291.326" stroke="#ED56A3" stroke-opacity="0.19" stroke-miterlimit="10"/>
<path d="M52.8447 1084.25C101.614 1047.6 122.637 1075.58 171.407 1038.93C220.176 1002.28 199.153 974.302 247.908 937.661C296.664 901.021 317.701 928.984 366.47 892.333C415.24 855.682 394.217 827.708 442.986 791.057C491.756 754.406 512.779 782.38 561.562 745.718C610.346 709.057 589.309 681.093 638.078 644.442" stroke="#ED56A3" stroke-opacity="0.19" stroke-miterlimit="10"/>
<path d="M-275.536 650.077C-226.767 613.426 -205.744 641.4 -156.974 604.749C-108.205 568.098 -129.228 540.124 -80.4724 503.483C-31.717 466.843 -10.6799 494.806 38.0896 458.155C86.859 421.504 65.8359 393.53 114.605 356.879C163.375 320.228 184.398 348.202 233.181 311.541C281.965 274.879 260.928 246.915 309.697 210.264" stroke="#ED56A3" stroke-opacity="0.19" stroke-miterlimit="10"/>
<path d="M-13.1816 998.139C35.5878 961.488 56.6109 989.462 105.38 952.811C154.15 916.16 133.127 888.186 181.882 851.545C230.638 814.905 251.675 842.868 300.444 806.217C349.213 769.566 328.19 741.592 376.96 704.941C425.729 668.29 446.752 696.264 495.536 659.602C544.319 622.941 523.282 594.977 572.052 558.326" stroke="#ED56A3" stroke-opacity="0.19" stroke-miterlimit="10"/>
<path d="M-146.028 821.502C-97.2584 784.851 -76.2353 812.825 -27.4659 776.174C21.3036 739.523 0.280503 711.548 49.0359 674.908C97.7913 638.267 118.828 666.231 167.598 629.58C216.367 592.929 195.344 564.955 244.114 528.304C292.883 491.653 313.906 519.627 362.69 482.965C411.473 446.303 390.436 418.34 439.205 381.689" stroke="#ED56A3" stroke-opacity="0.19" stroke-miterlimit="10"/>
<path d="M115.577 1174.62C164.347 1137.97 185.37 1165.94 234.139 1129.29C282.909 1092.64 261.885 1064.66 310.641 1028.02C359.396 991.382 380.433 1019.35 429.203 982.695C477.972 946.044 456.949 918.07 505.719 881.419C554.488 844.768 575.511 872.742 624.295 836.08C673.078 799.418 652.041 771.455 700.81 734.804" stroke="#ED56A3" stroke-opacity="0.19" stroke-miterlimit="10"/>
<path d="M-363.354 529.476C-314.585 492.825 -293.562 520.799 -244.792 484.148C-196.023 447.497 -217.046 419.523 -168.29 382.882C-119.535 346.242 -98.4978 374.205 -49.7283 337.554C-0.958869 300.903 -21.9819 272.929 26.7875 236.278C75.5569 199.627 96.58 227.601 145.363 190.939C194.147 154.278 173.11 126.314 221.879 89.6629" stroke="#ED56A3" stroke-opacity="0.19" stroke-miterlimit="10"/>
<path d="M-100.463 878.138C-51.6934 841.487 -30.6704 869.461 18.0991 832.81C66.8685 796.159 45.8454 768.185 94.6009 731.545C143.356 694.904 164.393 722.868 213.163 686.217C261.932 649.566 240.909 621.591 289.679 584.94C338.448 548.289 359.471 576.263 408.255 539.602C457.038 502.94 436.001 474.977 484.77 438.325" stroke="#ED56A3" stroke-opacity="0.19" stroke-miterlimit="10"/>
<path d="M-234.596 705.954C-185.826 669.303 -164.803 697.277 -116.034 660.626C-67.2643 623.975 -88.2874 596.001 -39.532 559.36C9.22345 522.72 30.2605 550.683 79.03 514.032C127.799 477.381 106.776 449.407 155.546 412.756C204.315 376.105 225.338 404.079 274.122 367.417C322.905 330.756 301.868 302.792 350.638 266.141" stroke="#ED56A3" stroke-opacity="0.19" stroke-miterlimit="10"/>
<path d="M27.7593 1054.02C76.5287 1017.36 97.5518 1045.34 146.321 1008.69C195.091 972.037 174.068 944.062 222.823 907.422C271.578 870.781 292.616 898.745 341.385 862.094C390.154 825.443 369.131 797.469 417.901 760.818C466.67 724.166 487.693 752.141 536.477 715.479C585.26 678.817 564.223 650.854 612.993 614.203" stroke="#ED56A3" stroke-opacity="0.19" stroke-miterlimit="10"/>
<path d="M-300.624 619.838C-251.855 583.187 -230.832 611.161 -182.062 574.51C-133.293 537.859 -154.316 509.884 -105.56 473.244C-56.8049 436.603 -35.7678 464.567 13.0017 427.916C61.7711 391.265 40.748 363.291 89.5175 326.64C138.287 289.988 159.31 317.963 208.093 281.301C256.877 244.639 235.84 216.676 284.609 180.025" stroke="#ED56A3" stroke-opacity="0.19" stroke-miterlimit="10"/>
<path d="M-37.7314 968.501C11.038 931.85 32.0611 959.824 80.8305 923.173C129.6 886.522 108.577 858.548 157.332 821.907C206.088 785.267 227.125 813.231 275.894 776.579C324.664 739.928 303.641 711.954 352.41 675.303C401.179 638.652 422.203 666.626 470.986 629.965C519.77 593.303 498.732 565.339 547.502 528.688" stroke="#ED56A3" stroke-opacity="0.19" stroke-miterlimit="10"/>
<path d="M-171.114 791.262C-122.344 754.611 -101.321 782.586 -52.5518 745.934C-3.78238 709.283 -24.8054 681.309 23.95 644.669C72.7054 608.028 93.7425 635.992 142.512 599.341C191.281 562.69 170.258 534.715 219.028 498.064C267.797 461.413 288.82 489.387 337.604 452.726C386.387 416.064 365.35 388.101 414.12 351.449" stroke="#ED56A3" stroke-opacity="0.19" stroke-miterlimit="10"/>
<path d="M90.4907 1144.38C139.26 1107.73 160.283 1135.7 209.053 1099.05C257.822 1062.4 236.799 1034.42 285.554 997.784C334.31 961.144 355.347 989.107 404.116 952.456C452.886 915.805 431.863 887.831 480.632 851.18C529.402 814.529 550.425 842.503 599.208 805.841C647.992 769.18 626.955 741.216 675.724 704.565" stroke="#ED56A3" stroke-opacity="0.19" stroke-miterlimit="10"/>
<path d="M-319.542 589.273C-270.773 552.622 -249.75 580.596 -200.981 543.945C-152.211 507.294 -173.234 479.319 -124.479 442.679C-75.7233 406.038 -54.6862 434.002 -5.91679 397.351C42.8527 360.7 21.8296 332.726 70.599 296.075C119.368 259.424 140.392 287.398 189.175 250.736C237.958 214.074 216.921 186.111 265.691 149.46" stroke="#ED56A3" stroke-opacity="0.19" stroke-miterlimit="10"/>
<path d="M-56.6514 937.936C-7.88192 901.285 13.1411 929.259 61.9106 892.608C110.68 855.957 89.657 827.983 138.412 791.343C187.168 754.702 208.205 782.666 256.974 746.014C305.744 709.363 284.721 681.389 333.49 644.738C382.26 608.087 403.283 636.061 452.066 599.4C500.85 562.738 479.813 534.774 528.582 498.123" stroke="#ED56A3" stroke-opacity="0.19" stroke-miterlimit="10"/>
<path d="M-190.034 760.697C-141.265 724.046 -120.242 752.02 -71.4722 715.369C-22.7028 678.718 -43.7258 650.744 5.02957 614.103C53.785 577.463 74.8221 605.427 123.592 568.775C172.361 532.124 151.338 504.15 200.107 467.499C248.877 430.848 269.9 458.822 318.683 422.161C367.467 385.499 346.43 357.535 395.199 320.884" stroke="#ED56A3" stroke-opacity="0.19" stroke-miterlimit="10"/>
<path d="M71.5703 1113.81C120.34 1077.16 141.363 1105.14 190.132 1068.48C238.902 1031.83 217.879 1003.86 266.634 967.219C315.389 930.578 336.427 958.542 385.196 921.891C433.965 885.24 412.942 857.266 461.712 820.614C510.481 783.963 531.504 811.937 580.288 775.276C629.071 738.614 608.034 710.651 656.804 674" stroke="#ED56A3" stroke-opacity="0.19" stroke-miterlimit="10"/>
<path d="M-256.812 679.635C-208.043 642.984 -187.02 670.959 -138.251 634.307C-89.4811 597.656 -110.504 569.682 -61.7488 533.042C-12.9933 496.401 8.04375 524.365 56.8132 487.714C105.583 451.063 84.5596 423.088 133.329 386.437C182.098 349.786 203.122 377.76 251.905 341.099C300.688 304.437 279.651 276.474 328.421 239.823" stroke="#ED56A3" stroke-opacity="0.19" stroke-miterlimit="10"/>
<path d="M5.54297 1027.7C54.3124 991.046 75.3355 1019.02 124.105 982.369C172.874 945.718 151.851 917.744 200.607 881.103C249.362 844.463 270.399 872.427 319.169 835.775C367.938 799.124 346.915 771.15 395.684 734.499C444.454 697.848 465.477 725.822 514.26 689.161C563.044 652.499 542.007 624.535 590.776 587.884" stroke="#ED56A3" stroke-opacity="0.19" stroke-miterlimit="10"/>
<path d="M-127.302 851.06C-78.5328 814.408 -57.5097 842.383 -8.7403 805.732C40.0291 769.08 19.0061 741.106 67.7615 704.466C116.517 667.825 137.554 695.789 186.323 659.138C235.093 622.487 214.07 594.513 262.839 557.861C311.609 521.21 332.632 549.185 381.415 512.523C430.199 475.861 409.162 447.898 457.931 411.247" stroke="#ED56A3" stroke-opacity="0.19" stroke-miterlimit="10"/>
<path d="M134.301 1204.18C183.071 1167.52 204.094 1195.5 252.863 1158.85C301.633 1122.2 280.61 1094.22 329.365 1057.58C378.12 1020.94 399.158 1048.9 447.927 1012.25C496.696 975.602 475.673 947.628 524.443 910.977C573.212 874.326 594.235 902.3 643.019 865.639C691.802 828.977 670.765 801.013 719.535 764.362" stroke="#ED56A3" stroke-opacity="0.19" stroke-miterlimit="10"/>
<path d="M-181.625 777.275C-132.855 740.624 -111.832 768.598 -63.0626 731.947C-14.2931 695.296 -35.3162 667.322 13.4392 630.681C62.1946 594.041 83.2317 622.004 132.001 585.353C180.771 548.702 159.748 520.728 208.517 484.077C257.286 447.426 278.31 475.4 327.093 438.739C375.876 402.077 354.839 374.113 403.609 337.462" stroke="#ED56A3" stroke-opacity="0.19" stroke-miterlimit="10"/>
<path d="M-373.866 515.488C-325.097 478.837 -304.074 506.811 -255.304 470.16C-206.535 433.509 -227.558 405.535 -178.802 368.894C-130.047 332.254 -109.01 360.217 -60.2405 323.566C-11.4711 286.915 -32.4942 258.941 16.2753 222.29C65.0447 185.639 86.0678 213.613 134.851 176.951C183.635 140.29 162.598 112.326 211.367 75.6751" stroke="#ED56A3" stroke-opacity="0.19" stroke-miterlimit="10"/>
<path d="M-110.974 864.152C-62.2047 827.501 -41.1816 855.475 7.58782 818.824C56.3573 782.173 35.3342 754.199 84.0896 717.558C132.845 680.918 153.882 708.881 202.652 672.23C251.421 635.579 230.398 607.605 279.167 570.954C327.937 534.303 348.96 562.277 397.743 525.615C446.527 488.954 425.49 460.99 474.259 424.339" stroke="#ED56A3" stroke-opacity="0.19" stroke-miterlimit="10"/>
<path d="M-245.108 691.967C-196.339 655.315 -175.316 683.29 -126.546 646.639C-77.777 609.987 -98.8001 582.013 -50.0447 545.373C-1.28924 508.732 19.7478 536.696 68.5173 500.045C117.287 463.394 96.2637 435.42 145.033 398.768C193.803 362.117 214.826 390.092 263.609 353.43C312.393 316.768 291.355 288.805 340.125 252.154" stroke="#ED56A3" stroke-opacity="0.19" stroke-miterlimit="10"/>
<path d="M17.2471 1040.03C66.0165 1003.38 87.0396 1031.35 135.809 994.7C184.578 958.049 163.555 930.075 212.311 893.434C261.066 856.794 282.103 884.757 330.873 848.106C379.642 811.455 358.619 783.481 407.389 746.83C456.158 710.179 477.181 738.153 525.965 701.491C574.748 664.83 553.711 636.866 602.48 600.215" stroke="#ED56A3" stroke-opacity="0.19" stroke-miterlimit="10"/>
<path d="M-311.135 605.851C-262.365 569.2 -241.342 597.174 -192.573 560.523C-143.803 523.871 -164.826 495.897 -116.071 459.257C-67.3156 422.616 -46.2785 450.58 2.49093 413.929C51.2604 377.278 30.2373 349.304 79.0067 312.653C127.776 276.001 148.799 303.976 197.583 267.314C246.366 230.652 225.329 202.689 274.099 166.038" stroke="#ED56A3" stroke-opacity="0.19" stroke-miterlimit="10"/>
<path d="M-48.2437 954.514C0.525791 917.863 21.5488 945.837 70.3183 909.186C119.088 872.535 98.0647 844.561 146.82 807.92C195.576 771.28 216.613 799.243 265.382 762.592C314.151 725.941 293.128 697.967 341.898 661.316C390.667 624.665 411.69 652.639 460.474 615.978C509.257 579.316 488.22 551.352 536.99 514.701" stroke="#ED56A3" stroke-opacity="0.19" stroke-miterlimit="10"/>
<path d="M-348.781 545.728C-300.011 509.077 -278.988 537.051 -230.219 500.4C-181.449 463.749 -202.472 435.775 -153.717 399.134C-104.962 362.494 -83.9245 390.457 -35.1551 353.806C13.6144 317.155 -7.40871 289.181 41.3607 252.53C90.1302 215.879 111.153 243.853 159.937 207.191C208.72 170.53 187.683 142.566 236.453 105.915" stroke="#ED56A3" stroke-opacity="0.19" stroke-miterlimit="10"/>
<path d="M-85.8882 894.391C-37.1187 857.74 -16.0957 885.714 32.6738 849.063C81.4432 812.412 60.4202 784.437 109.176 747.797C157.931 711.156 178.968 739.12 227.738 702.469C276.507 665.818 255.484 637.844 304.253 601.193C353.023 564.541 374.046 592.516 422.829 555.854C471.613 519.192 450.576 491.229 499.345 454.578" stroke="#ED56A3" stroke-opacity="0.19" stroke-miterlimit="10"/>
<path d="M-219.271 717.151C-170.502 680.5 -149.478 708.474 -100.709 671.823C-51.9396 635.172 -72.9627 607.198 -24.2072 570.557C24.5482 533.917 45.5853 561.88 94.3547 525.229C143.124 488.578 122.101 460.604 170.871 423.953C219.64 387.302 240.663 415.276 289.446 378.614C338.23 341.953 317.193 313.989 365.962 277.338" stroke="#ED56A3" stroke-opacity="0.19" stroke-miterlimit="10"/>
<path d="M42.334 1070.27C91.1034 1033.62 112.126 1061.59 160.896 1024.94C209.665 988.288 188.642 960.314 237.398 923.674C286.153 887.033 307.19 914.997 355.96 878.346C404.729 841.695 383.706 813.721 432.475 777.07C481.245 740.418 502.268 768.393 551.051 731.731C599.835 695.069 578.798 667.106 627.567 630.455" stroke="#ED56A3" stroke-opacity="0.19" stroke-miterlimit="10"/>
<path d="M-286.049 636.09C-237.28 599.439 -216.257 627.413 -167.487 590.762C-118.718 554.111 -139.741 526.137 -90.9856 489.496C-42.2302 452.856 -21.1931 480.819 27.5764 444.168C76.3458 407.517 55.3227 379.543 104.092 342.892C152.862 306.241 173.885 334.215 222.668 297.553C271.452 260.892 250.415 232.928 299.184 196.277" stroke="#ED56A3" stroke-opacity="0.19" stroke-miterlimit="10"/>
<path d="M-23.6934 984.152C25.0761 947.501 46.0991 975.475 94.8686 938.824C143.638 902.173 122.615 874.198 171.37 837.558C220.126 800.917 241.163 828.881 289.932 792.23C338.702 755.579 317.679 727.605 366.448 690.954C415.218 654.302 436.241 682.277 485.024 645.615C533.808 608.953 512.771 580.99 561.54 544.339" stroke="#ED56A3" stroke-opacity="0.19" stroke-miterlimit="10"/>
<path d="M-156.539 807.514C-107.769 770.863 -86.7461 798.837 -37.9766 762.186C10.7928 725.535 -10.2302 697.56 38.5252 660.92C87.2806 624.279 108.318 652.243 157.087 615.592C205.857 578.941 184.833 550.967 233.603 514.316C282.372 477.665 303.395 505.639 352.179 468.977C400.962 432.315 379.925 404.352 428.695 367.701" stroke="#ED56A3" stroke-opacity="0.19" stroke-miterlimit="10"/>
<path d="M105.066 1160.63C153.835 1123.98 174.858 1151.95 223.628 1115.3C272.397 1078.65 251.374 1050.68 300.13 1014.04C348.885 977.396 369.922 1005.36 418.692 968.708C467.461 932.057 446.438 904.083 495.207 867.432C543.977 830.781 565 858.755 613.783 822.093C662.567 785.432 641.53 757.468 690.299 720.817" stroke="#ED56A3" stroke-opacity="0.19" stroke-miterlimit="10"/>
</svg>
